<?xml version="1.0" standalone="no"?>
<!DOCTYPE svg PUBLIC "-//W3C//DTD SVG 20010904//EN"
 "http://www.w3.org/TR/2001/REC-SVG-20010904/DTD/svg10.dtd">
<svg version="1.0" xmlns="http://www.w3.org/2000/svg"
 width="400.000000pt" height="299.000000pt" viewBox="0 0 400.000000 299.000000"
 preserveAspectRatio="xMidYMid meet">
<metadata>
Created by potrace 1.16, written by Peter Selinger 2001-2019
</metadata>
<g transform="translate(0.000000,299.000000) scale(0.100000,-0.100000)"
fill="#000000" stroke="none">
<path d="M1968 2979 c-31 -4 -86 -21 -121 -37 -47 -22 -88 -32 -148 -37 -521
-42 -937 -366 -1098 -852 -53 -163 -115 -268 -220 -375 -56 -59 -70 -68 -101
-68 -51 0 -131 -41 -163 -84 -16 -20 -46 -87 -67 -149 -21 -62 -41 -120 -45
-131 -8 -18 -3 -18 106 -14 98 4 123 8 174 32 33 15 71 37 83 49 31 28 62 89
62 120 0 16 16 37 49 65 l49 41 5 -227 c8 -339 41 -580 129 -922 59 -235 95
-297 200 -356 51 -28 58 -29 178 -29 115 0 129 2 175 26 89 46 136 129 149
259 5 59 40 162 72 212 38 60 106 124 161 151 97 48 160 62 288 62 130 -1 218
-20 303 -69 l42 -25 2 85 c1 46 2 96 2 112 1 25 -5 29 -84 57 -81 28 -93 29
-255 30 -139 0 -182 -4 -235 -19 -218 -64 -382 -215 -451 -415 -10 -29 -26
-94 -34 -142 -20 -116 -21 -117 -63 -129 -79 -22 -172 -5 -199 36 -19 29 -75
225 -104 364 -54 256 -79 485 -86 775 -8 358 24 557 122 762 131 271 376 468
673 543 38 9 38 16 3 -80 -10 -30 -25 -90 -32 -132 -11 -68 -11 -89 5 -170 33
-173 96 -269 318 -484 68 -66 128 -125 132 -133 6 -9 -42 -63 -158 -180 -155
-157 -166 -170 -166 -205 0 -48 13 -72 52 -92 61 -32 77 -21 311 214 185 186
217 222 217 248 0 16 -5 36 -10 44 -5 8 -106 112 -223 230 -188 189 -218 223
-248 285 -31 65 -33 78 -34 170 0 93 2 105 34 173 39 82 99 145 182 189 50 26
62 28 169 28 102 0 121 -3 165 -24 73 -36 156 -119 190 -191 l29 -60 99 0 99
0 -7 33 c-3 17 -25 70 -47 117 -114 235 -358 359 -630 319z"/>
<path d="M2585 2888 c90 -100 145 -202 176 -325 l13 -53 518 0 519 0 -3 -827
c-4 -809 -4 -830 -25 -904 -75 -265 -246 -449 -512 -548 -270 -101 -562 3
-675 239 -59 123 -69 254 -29 380 22 69 119 173 172 183 64 13 98 8 130 -19
l31 -26 -44 -28 c-135 -86 -165 -284 -61 -408 63 -76 189 -118 299 -101 87 13
196 69 247 127 23 26 55 76 72 112 27 58 31 78 35 180 5 125 -12 223 -47 270
-42 57 -134 45 -161 -20 -11 -28 -11 -42 5 -101 22 -88 17 -196 -13 -255 -43
-84 -132 -133 -216 -119 -58 9 -86 38 -86 91 0 52 25 74 83 74 30 0 46 7 69
31 30 29 31 33 25 95 -12 125 -78 219 -190 269 -54 25 -69 27 -146 23 -107 -5
-180 -38 -262 -118 -118 -116 -184 -320 -158 -493 25 -173 85 -295 203 -413
128 -128 262 -189 441 -201 425 -28 842 272 963 692 40 139 42 185 42 1145 0
1026 4 964 -65 1032 -70 69 -55 68 -763 68 l-634 0 47 -52z"/>
<path d="M2324 2135 c-29 -20 -48 -69 -39 -102 4 -18 69 -91 173 -196 l167
-167 -168 -168 c-142 -142 -168 -173 -174 -205 -5 -32 -1 -41 30 -72 38 -38
70 -44 115 -21 15 8 118 106 230 218 202 204 202 204 202 248 l0 44 -218 218
c-211 211 -219 218 -258 218 -22 0 -49 -7 -60 -15z"/>
</g>
</svg>
